# xmcd CD database file
#
# Track frame offsets:
#	150
#	22970
#	43702
#	65767
#	88225
#	104227
#	124537
#	140525
#	169350
#	188532
#	213245
#
# Disc length: 2981 seconds
#
# Revision: 4
# Processed by: cddbd v1.5.1PL0 Copyright (c) Steve Scherf et al.
# Submitted via: CDex 1.51
#
DISCID=a00ba30b
DTITLE=因幡晃 - 1/4の永遠
DYEAR=2000
DGENRE=New Age
TTITLE0=命の炎
TTITLE1=若草の風の中
TTITLE2=忍冬
TTITLE3=１９９９
TTITLE4=別涙
TTITLE5=心をあずけるまで
TTITLE6=ナーフェヴガ〜消えてしまえたら
TTITLE7=痩せ地の薔薇
TTITLE8=わかって下さい
TTITLE9=雪
TTITLE10=秋田長持唄
EXTD=YEAR: 2000
EXTT0=
EXTT1=
EXTT2=
EXTT3=
EXTT4=
EXTT5=
EXTT6=
EXTT7=
EXTT8=
EXTT9=
EXTT10=
PLAYORDER=
